<?xml version="1.0" encoding="utf-8"?><svg viewBox="0 0 28 28" role="presentation" focusable="false" xmlns="http://www.w3.org/2000/svg" xmlns:xlink="http://www.w3.org/1999/xlink" aria-hidden="true" width="100%" height="70" preserveAspectRatio="xMidYMid meet"><g><title>Azure_Container_28x</title><path fill="none" d="M0 0h28v28H0z"></path><path d="M19 5.9v18.6H0V5.9h19z" class="msportalfx-svg-c03" fill="#a0a1a2"></path><path opacity=".5" d="M16.6 22.6H2.3V7.7h14.3v14.9z" class="msportalfx-svg-c05" fill="#3e3e3e"></path><path fill="#D2D2D2" d="M16.6 22.6H2.3v-.9h14.3v.9z"></path><path fill="#E6E6E6" opacity=".6" d="M6.2 21.7H4.3V9.3h2l-.1 12.4zm4.3-12.4H8.4v12.4h2.1V9.3zm4.1 0h-2v12.4h2V9.3z"></path><path opacity=".15" d="M19 24.5H0L19 6.8v17.7z" class="msportalfx-svg-c01" fill="#ffffff"></path><path d="M28 3.5v16.3l-9 4.7V5.9l9-2.4z" class="msportalfx-svg-c03" fill="#a0a1a2"></path><path d="M19 5.9H0l9.9-2.4H28l-9 2.4z" class="msportalfx-svg-c03" fill="#a0a1a2"></path><path opacity=".5" d="m28 3.5-9 2.4H0l9.9-2.4H28z" class="msportalfx-svg-c01" fill="#ffffff"></path><path opacity=".5" d="m26.7 18.6-6.4 3.2V7.5l6.4-1.9v13z" class="msportalfx-svg-c05" fill="#3e3e3e"></path><path opacity=".5" d="m26.7 18.6-6.4 3.3V21l6.4-3v.6z" class="msportalfx-svg-c01" fill="#ffffff"></path><path d="M24.9 18.8V7.4l1-.3v11.3l-1 .4zM22.2 20V8.2l-.9.3v12l.9-.5zm1.9-.9V7.6l-.9.3v11.7l.9-.5z" class="msportalfx-svg-c03" fill="#a0a1a2"></path><path opacity=".2" d="M28 3.5v16.3l-9 4.7V5.9l9-2.4z"></path></g><defs></defs></svg>