<?xml version="1.0" encoding="utf-8"?><svg viewBox="0 0 16 16" class="" role="presentation" focusable="false" xmlns="http://www.w3.org/2000/svg" xmlns:xlink="http://www.w3.org/1999/xlink" id="FxSymbol0-011" data-type="176" width="100%" height="70" preserveAspectRatio="xMidYMid meet"><g><title></title><path d="M2 7a1 1 0 0 1 .39.08.94.94 0 0 1 .53.53 1 1 0 0 1 0 .78.94.94 0 0 1-.53.53 1 1 0 0 1-.78 0 .94.94 0 0 1-.53-.53 1 1 0 0 1 0-.78.94.94 0 0 1 .53-.53A1 1 0 0 1 2 7zm6 0a1 1 0 0 1 .39.08.94.94 0 0 1 .53.53 1 1 0 0 1 0 .78.94.94 0 0 1-.53.53 1 1 0 0 1-.78 0 .94.94 0 0 1-.53-.53 1 1 0 0 1 0-.78.94.94 0 0 1 .53-.53A1 1 0 0 1 8 7zm6 0a1 1 0 0 1 .39.08.94.94 0 0 1 .53.53 1 1 0 0 1 0 .78.94.94 0 0 1-.53.53 1 1 0 0 1-.78 0 .94.94 0 0 1-.53-.53 1 1 0 0 1 0-.78.94.94 0 0 1 .53-.53A1 1 0 0 1 14 7z"></path></g><defs></defs></svg>